<?xml version="1.0" encoding="UTF-8"?>
<svg id="Layer_1" xmlns="http://www.w3.org/2000/svg" version="1.1" viewBox="0 0 168 25">
  <!-- Generator: Adobe Illustrator 29.5.0, SVG Export Plug-In . SVG Version: 2.1.0 Build 137)  -->
  <defs>
    <style>
      .st0 {
        fill: #f41ce5;
        fill-rule: evenodd;
      }

      .st1 {
        fill: #fff;
      }
    </style>
  </defs>
  <path class="st0" d="M20.83,0c-5.56,0-9.03,2.78-10.42,8.33,2.08-2.78,4.51-3.82,7.29-3.12,1.58.4,2.72,1.55,3.97,2.82,2.04,2.07,4.41,4.47,9.57,4.47,5.56,0,9.03-2.78,10.42-8.33-2.08,2.78-4.51,3.82-7.29,3.12-1.58-.4-2.72-1.55-3.97-2.82-2.04-2.07-4.41-4.47-9.57-4.47ZM10.42,12.5c-5.56,0-9.03,2.78-10.42,8.33,2.08-2.78,4.51-3.82,7.29-3.12,1.58.4,2.72,1.55,3.97,2.82,2.04,2.07,4.41,4.47,9.57,4.47,5.56,0,9.03-2.78,10.42-8.33-2.08,2.78-4.51,3.82-7.29,3.12-1.58-.4-2.72-1.55-3.97-2.82-2.04-2.07-4.41-4.47-9.57-4.47Z"/>
  <g>
    <path class="st1" d="M58.86,2.6l-3.17.94v3.94h-2.7v3.05h2.7v7.04c0,3.81,1.94,5.16,6.8,4.57v-2.84c-2.4.12-3.64.15-3.64-1.73v-7.04h3.64v-3.05h-3.64V2.6Z"/>
    <path class="st1" d="M162.87,1.62v7.95c-1.11-1.52-2.84-2.46-5.13-2.46-3.99,0-7.3,3.34-7.3,7.71s3.31,7.71,7.3,7.71c2.29,0,4.02-.94,5.13-2.49v2.11h3.17V1.62h-3.17ZM158.24,19.5c-2.64,0-4.63-1.96-4.63-4.69s1.99-4.69,4.63-4.69,4.63,1.96,4.63,4.69-1.99,4.69-4.63,4.69Z"/>
    <rect class="st1" x="98.28" y=".74" width="3.17" height="21.4"/>
    <path class="st1" d="M142.23,7.1h0c-1.99,0-3.58.73-4.54,2.26v-1.88h-3.17v14.66h3.17v-7.86c0-2.99,1.64-4.22,3.72-4.22s3.28,1.17,3.28,3.4v8.68h3.17v-9c0-3.81-2.35-6.04-5.63-6.04Z"/>
    <polygon class="st1" points="119.13 17.6 116.08 7.48 113.06 7.48 109.98 17.6 107.13 7.48 103.79 7.48 108.39 22.14 111.5 22.14 114.58 12.26 117.63 22.14 120.74 22.14 125.34 7.48 122 7.48 119.13 17.6"/>
    <path class="st1" d="M129.27,1.23c-1.11,0-2.02.91-2.02,2.02s.91,2.02,2.02,2.02,2.02-.94,2.02-2.02-.91-2.02-2.02-2.02Z"/>
    <rect class="st1" x="127.69" y="7.48" width="3.17" height="14.66"/>
    <path class="st1" d="M71.8,7.1h-.57c-3.99,0-7.3,3.34-7.3,7.71s3.31,7.71,7.3,7.71h.57c3.99,0,7.3-3.37,7.3-7.71s-3.31-7.71-7.3-7.71ZM71.8,19.45h-.57c-2.38-.23-4.14-2.09-4.14-4.64s1.75-4.41,4.14-4.64h.57c2.38.23,4.14,2.09,4.14,4.64s-1.75,4.41-4.14,4.64Z"/>
    <path class="st1" d="M88.68,7.1h-.57c-3.99,0-7.3,3.34-7.3,7.71s3.31,7.71,7.3,7.71h.57c3.99,0,7.3-3.37,7.3-7.71s-3.31-7.71-7.3-7.71ZM88.68,19.45h-.57c-2.38-.23-4.14-2.09-4.14-4.64s1.75-4.41,4.14-4.64h.57c2.38.23,4.14,2.09,4.14,4.64s-1.75,4.41-4.14,4.64Z"/>
  </g>
</svg>